<?xml version="1.0" encoding="UTF-8"?>
<svg id="Layer_1" data-name="Layer 1" xmlns="http://www.w3.org/2000/svg" viewBox="0 0 113.39 113.39">
  <defs>
    <style>
      .cls-1 {
        stroke-width: 0px;
      }

      .cls-2 {
        fill: none;
        stroke: #000;
        stroke-miterlimit: 10;
        stroke-width: 3px;
      }
    </style>
  </defs>
  <path class="cls-1" d="M38.67,60.39l-2.36,13.37c-.04.18-.11.35-.22.48-.84,1.09-1.37,2.02-1.53,2.77-.11.56,0,1,.37,1.35l9.22,9.22c.58.56,1.27.92,2.08,1.06.89.17,1.93.07,3.12-.25.02,0,.04-.01.07-.01.45-.12,1.05-.27,1.61-.41,2.47-.6,4.63-1.13,6.63-2.95l2.57-2.68s.07-.08.1-.12c.04-.04.29-.29.63-.61,1.76-1.72,3.94-3.84,2.61-5.7l-1.03-1.03c-.5.48-1.03.95-1.54,1.41-.46.41-.9.79-1.3,1.19-.42.42-1.11.42-1.54,0-.42-.43-.42-1.11,0-1.54.4-.4.89-.84,1.4-1.29,1.74-1.54,3.74-3.3,2.67-4.83l-1.02-1.02c-.06-.06-.1-.12-.15-.18-.58.6-1.23,1.17-1.86,1.73-.46.41-.9.79-1.3,1.19-.43.43-1.11.43-1.54,0-.43-.42-.43-1.11,0-1.54.4-.4.89-.84,1.4-1.29,1.74-1.54,3.74-3.3,2.67-4.83l-1.02-1.02c-.07-.07-.13-.15-.18-.23l-2.99,2.99c-.43.42-1.11.42-1.54,0-.42-.43-.42-1.11,0-1.54l5.61-5.61c1.34-1.34,1.65-2.74,1.3-3.8-.13-.39-.35-.73-.61-1-.14-.14-.3-.26-.47-.37h0c-.08.04-.14-.04-.22-.12-.09-.04-.2-.09-.3-.12-.93-.31-2.14-.09-3.36.94-.02.02-.03.03-.05.04-.13.11-.27.23-.4.37l-11.64,11.65c-.42.42-1.11.42-1.54,0-.39-.39-.42-.99-.1-1.42l-4.25-4.25h0ZM46.03,61.52l.37-.37,7.68-7.68c-.8-.37-1.54-.89-2.19-1.54-2.92-2.92-2.92-7.65,0-10.57s7.65-2.92,10.57,0c2.92,2.92,2.92,7.65,0,10.57l-.07.07c.06.05.12.11.17.16.24.24.45.5.63.78l9.52-9.52c-1.46-1.46-1.46-3.84,0-5.31l-7.09-7.09c-1.46,1.46-3.84,1.46-5.31,0l-19.73,19.73c1.46,1.46,1.46,3.84,0,5.31l5.46,5.46h0ZM62.77,59c-.26.36-.55.71-.9,1.06l-1.11,1.11v-.03c.07.04.14.1.22.18l1.06,1.06c.06.06.11.13.16.19,1.2,1.64,1.01,3.1.19,4.44.15.06.29.14.4.25l1.06,1.06c.06.06.11.13.16.19,1.29,1.77.96,3.31,0,4.72.04.03.08.07.13.11l1.06,1.06c.06.06.11.13.16.19,2.47,3.38-.47,6.25-2.84,8.56l-.61.61-2.64,2.77-.08.08c-2.42,2.19-4.82,2.78-7.58,3.45-.46.11-.94.23-1.58.4-.02,0-.03.01-.04.01-1.5.41-2.86.51-4.08.29-1.24-.22-2.32-.78-3.21-1.66l-9.2-9.21c-.94-.9-1.25-2.01-.99-3.32.21-1.06.81-2.22,1.78-3.48l2.46-13.94v-.06c.02-.17.06-.37.09-.58l-4.74-4.74,31.31-31.31,17.95,17.95-18.56,18.56h0Z"/>
  <rect class="cls-2" x="12.67" y="12.67" width="88.04" height="88.04" rx="6.13" ry="6.13"/>
</svg>