<?xml version="1.0" encoding="UTF-8"?>
<svg id="Layer_1" data-name="Layer 1" xmlns="http://www.w3.org/2000/svg" viewBox="0 0 113.39 113.39">
  <defs>
    <style>
      .cls-1 {
        fill-rule: evenodd;
        stroke-width: 0px;
      }

      .cls-2 {
        fill: none;
        stroke: #000;
        stroke-miterlimit: 10;
        stroke-width: 3px;
      }
    </style>
  </defs>
  <path class="cls-1" d="M23.9,30.68h65.58c2.49,0,4.56,2.07,4.56,4.56v42.91c0,2.49-2.07,4.56-4.56,4.56H23.9c-2.49,0-4.56-2.07-4.56-4.56v-42.91c0-2.49,2.07-4.56,4.56-4.56h0ZM61.83,69.15h17.32v2.43h-17.32v-2.43h0ZM61.83,62.95h23.76v2.43h-23.76v-2.43h0ZM75.32,51.95h3.4c.18,0,.3.12.3.3v6.69c0,.18-.12.3-.3.3h-3.4c-.18,0-.3-.12-.3-.3v-6.69c0-.12.12-.3.3-.3h0ZM62.19,47.88h3.4c.18,0,.3.12.3.3v10.82c0,.18-.12.3-.3.3h-3.4c-.18,0-.3-.12-.3-.3v-10.82c-.06-.18.12-.3.3-.3h0ZM68.76,45.57h3.4c.18,0,.3.12.3.3v13.13c0,.18-.12.3-.3.3h-3.4c-.18,0-.3-.12-.3-.3v-13.13c0-.18.12-.3.3-.3h0ZM43.23,59.98l10.33.18c0,3.71-1.82,7.11-4.86,9.18l-5.47-9.36h0ZM42.2,58.21l-.12-12.03v-.79l.79.06h0c.97.06,1.94.24,2.86.49s1.76.61,2.61,1.03c4.19,2.19,7.11,6.56,7.35,11.55l.06.79h-.79l-11.97-.36h-.67l-.12-.73h0ZM43.54,46.91l.12,10.58,10.51.3c-.43-4.13-2.98-7.72-6.5-9.6-.73-.36-1.52-.67-2.31-.91-.67-.12-1.22-.24-1.82-.36h0ZM41.17,59.37l5.9,10.21c-1.82,1.03-3.83,1.58-5.9,1.58-6.5,0-11.79-5.29-11.79-11.79s4.98-11.55,11.31-11.79l.49,11.79h0ZM89.61,39.25H23.72v39.14h65.89v-39.14h0Z"/>
  <rect class="cls-2" x="12.67" y="12.67" width="88.04" height="88.04" rx="6.13" ry="6.13"/>
</svg>