<?xml version="1.0" encoding="UTF-8"?>
<svg id="Layer_1" data-name="Layer 1" xmlns="http://www.w3.org/2000/svg" viewBox="0 0 113.39 113.39">
  <defs>
    <style>
      .cls-1 {
        fill-rule: evenodd;
        stroke-width: 0px;
      }

      .cls-2 {
        fill: none;
        stroke: #000;
        stroke-miterlimit: 10;
        stroke-width: 3px;
      }
    </style>
  </defs>
  <path class="cls-1" d="M47.37,58.37c-.91-.17-1.52-1.04-1.35-1.96.13-.69.67-1.23,1.35-1.35h18.4c.91.17,1.52,1.04,1.35,1.96-.13.69-.67,1.23-1.35,1.35h-18.4ZM81.97,71.78l-.69,2.9h-4.82c.62,1.97,1.97,2.95,4.06,2.95,2.32-.02,4.56-.79,6.4-2.21v5.9c-1.77,1.16-3.86,1.75-5.98,1.69-3.77,0-6.56-.86-8.36-2.58-1.67-1.52-2.82-3.54-3.29-5.75h-2.89l.75-2.9h1.76c-.03-.28-.04-.56-.03-.84,0-.31,0-.61.03-.92h-2.12l.75-2.89h1.75c1.38-5.44,5.16-8.16,11.34-8.16,2.15.03,4.26.59,6.14,1.62l-1.43,5.75c-1.44-1.31-2.95-1.97-4.52-1.97-2.05,0-3.44.92-4.16,2.76h5.71l-.69,2.89h-5.59c-.03.3-.04.61-.03.92v.84h5.93ZM63.48,82.68c.92,0,1.66.74,1.66,1.66s-.74,1.66-1.66,1.66H30.35c-2.13,0-3.86-1.73-3.87-3.87V31.25c0-2.13,1.72-3.86,3.86-3.87,0,0,0,0,0,0h47.47c2.13,0,3.86,1.73,3.87,3.87v19.22c.05.92-.65,1.7-1.57,1.75-.92.05-1.7-.65-1.75-1.57,0-.06,0-.12,0-.18v-19.22c-.01-.3-.25-.54-.55-.55H30.35c-.14,0-.28.06-.38.16-.1.1-.16.24-.16.39v50.89c0,.14.06.28.16.38.1.1.24.16.38.16h33.13ZM47.37,70.53c-.93-.17-1.54-1.07-1.37-2,.13-.69.67-1.24,1.37-1.37h14.47c.93.17,1.54,1.07,1.37,2-.13.69-.67,1.24-1.37,1.37h-14.47ZM47.37,46.19c-.84-.08-1.46-.82-1.39-1.66-.07-.84.55-1.58,1.39-1.65h18.4c.84.08,1.46.81,1.39,1.65.07.84-.55,1.58-1.39,1.66h-18.4ZM39.39,66.58c1.09,0,1.97.88,1.97,1.97s-.88,1.97-1.97,1.97-1.97-.88-1.97-1.97.88-1.97,1.97-1.97ZM39.39,54.59c1.09,0,1.97.88,1.97,1.97s-.88,1.97-1.97,1.97-1.97-.88-1.97-1.97.88-1.97,1.97-1.97ZM39.39,42.59c1.09,0,1.97.88,1.97,1.97s-.88,1.97-1.97,1.97-1.97-.88-1.97-1.97.88-1.97,1.97-1.97Z"/>
  <rect class="cls-2" x="12.67" y="12.67" width="88.04" height="88.04" rx="6.13" ry="6.13"/>
</svg>