<?xml version="1.0" encoding="UTF-8"?>
<svg id="Layer_1" data-name="Layer 1" xmlns="http://www.w3.org/2000/svg" viewBox="0 0 113.39 113.39">
  <defs>
    <style>
      .cls-1 {
        stroke-width: 0px;
      }

      .cls-2 {
        fill: none;
        stroke: #000;
        stroke-miterlimit: 10;
        stroke-width: 3px;
      }
    </style>
  </defs>
  <path class="cls-1" d="M65.58,89.04h-31.39c-.77,0-1.5-.32-2.03-.84-.52-.52-.84-1.23-.84-2.03V27.21c0-.8.32-1.5.84-2.03s1.23-.84,2.03-.84h44.98c.8,0,1.5.32,2.03.84s.84,1.23.84,2.03v45.11c.02.11.05.21.05.32,0,.39-.18.73-.44.98l-14.84,15.01c-.25.25-.83.43-1.23.41ZM43.44,38.9l-1.15.31c-1.51,0-2.53-.39-3.05-1.16-.27-.39-.46-.82-.57-1.3-.11-.48-.16-1.06-.16-1.75,0-1.54.29-2.66.86-3.37.58-.71,1.61-1.06,3.11-1.06s2.53.35,3.12,1.07c.59.71.88,1.83.88,3.36,0,1.14-.24,2.06-.71,2.77l.97.57-.7,1.55-2.59-.47s0-.51,0-.51ZM41.41,37.1h1.12c.37,0,.64-.04.8-.13.17-.09.25-.28.25-.59v-3.51h-1.13c-.36,0-.62.04-.79.13-.17.09-.25.28-.25.59,0,0,0,3.51,0,3.51ZM50.23,32.46v4.98h.42c.32,0,.56-.03.71-.1.15-.07.22-.22.22-.47v-4.41h2.7v6.75h-1.35l-.78-.77c-.54.65-1.31.97-2.31.97-.8,0-1.39-.17-1.76-.51-.37-.34-.55-.91-.55-1.71v-4.73h2.7,0ZM56.2,38.53c-.56-.59-.84-1.49-.84-2.69s.28-2.1.84-2.69c.56-.59,1.47-.88,2.73-.88s2.17.3,2.73.88c.56.59.84,1.49.84,2.69s-.28,2.11-.84,2.69c-.56.59-1.47.88-2.73.88s-2.17-.3-2.73-.88ZM58.26,34.79v2.65h.42c.32,0,.56-.03.71-.1.15-.07.22-.22.22-.47v-2.65h-.42c-.32,0-.56.03-.71.1s-.22.22-.22.47ZM63.19,34.2v-1.74h.68v-1.08l2.7-.67v1.75h.93v1.74h-.93v3.08c.23.05.5.08.8.09l-.12,1.99c-1.23,0-2.03-.07-2.4-.2-.46-.16-.75-.38-.87-.65-.07-.16-.11-.35-.11-.57v-3.74h-.68ZM71.14,36.76v.63c1.14.11,2.25-.02,3.35-.36l.32,1.99c-1.01.27-2.01.4-3,.4-1.26,0-2.17-.3-2.73-.88-.56-.59-.84-1.49-.84-2.69s.28-2.1.84-2.69c.56-.59,1.47-.88,2.73-.88s2.12.17,2.6.51c.48.34.71.98.71,1.92,0,.79-.29,1.21-.86,1.56-.57.35-1.61.52-3.13.52ZM71.14,34.79v.55h.55c.32,0,.56-.03.71-.1.15-.07.22-.22.22-.47v-.86h-.55c-.32,0-.56.03-.71.1s-.22.53-.22.77ZM45.57,73.38c1.04,0,1.98.42,2.66,1.1.71.7,1.1,1.66,1.1,2.66,0,1.04-.42,1.98-1.1,2.66l-.04.04c-.68.66-1.6,1.06-2.62,1.06s-1.98-.42-2.66-1.1c-.68-.68-1.1-1.62-1.1-2.66s.42-1.98,1.1-2.66c.68-.68,1.62-1.1,2.66-1.1h0ZM45.57,70.27c1.89,0,3.61.77,4.85,2.01h0c1.24,1.25,2.01,2.96,2.01,4.86s-.77,3.61-2.01,4.86l-.04.04c-1.24,1.22-2.94,1.98-4.82,1.98s-3.61-.77-4.86-2.01-2.01-2.96-2.01-4.86.77-3.61,2.01-4.85c1.24-1.24,2.96-2.01,4.85-2.01h0ZM49.46,73.25c-1-.99-2.37-1.61-3.89-1.61s-2.89.61-3.89,1.61c-1.03,1.03-1.61,2.43-1.61,3.89,0,1.52.61,2.89,1.61,3.89,1,1,2.37,1.61,3.89,1.61,1.44,0,2.83-.56,3.86-1.58l.03-.03c1-1,1.61-2.37,1.61-3.89s-.61-2.9-1.61-3.89ZM43.7,48.48c-.51,0-.92-.41-.92-.92s.41-.92.92-.92h18.49c.51,0,.92.41.92.92s-.41.92-.92.92h-18.49ZM43.7,62.64c-.51,0-.92-.41-.92-.92s.41-.92.92-.92h25.5c.51,0,.92.41.92.92s-.41.92-.92.92h-25.5ZM43.7,57c-.51,0-.92-.41-.92-.92s.41-.92.92-.92h18.49c.51,0,.92.41.92.92s-.41.92-.92.92h-18.49ZM73.08,52.57h-32.77v12.6h32.77v-12.6h0ZM40.31,50.72h32.77v-6.59h-32.77v6.59ZM39.39,42.29h34.61c.51,0,.92.41.92.92v22.88c0,.51-.41.92-.92.92h-34.61c-.51,0-.92-.41-.92-.92v-22.88c0-.51.41-.92.92-.92h0ZM64.48,86.47v-11.23c0-1.07.44-2.05,1.14-2.76.73-.73,1.72-1.14,2.76-1.14h11.03V27.21c0-.07-.02-.16-.09-.21-.05-.05-.11-.09-.21-.09h-44.95c-.07,0-.16.02-.21.09-.05.05-.09.14-.09.21v58.96c0,.09.02.16.09.21.05.05.11.09.21.09h30.33ZM67.06,75.23v9.41l10.6-10.73h-9.27c-.36,0-.68.16-.93.39-.23.23-.39.57-.39.93Z"/>
  <rect class="cls-2" x="12.67" y="12.67" width="88.04" height="88.04" rx="6.13" ry="6.13"/>
</svg>