<?xml version="1.0" encoding="UTF-8"?>
<svg id="Layer_1" data-name="Layer 1" xmlns="http://www.w3.org/2000/svg" viewBox="0 0 113.39 113.39">
  <defs>
    <style>
      .cls-1 {
        fill-rule: evenodd;
        stroke-width: 0px;
      }

      .cls-2 {
        fill: none;
        stroke: #000;
        stroke-miterlimit: 10;
        stroke-width: 3px;
      }
    </style>
  </defs>
  <path class="cls-1" d="M24.52,57.83h10.04c.94,0,1.71.77,1.71,1.71v20.51c0,.94-.77,1.71-1.71,1.71h-10.04c-.94,0-1.71-.77-1.71-1.71v-20.51c0-.94.77-1.71,1.71-1.71ZM38.48,79.75v-19.98h10.67c3.82.68,7.63,2.76,11.44,5.16h6.99c3.16.19,4.82,3.4,1.75,5.51-2.45,1.8-5.68,1.69-9,1.4-2.29-.12-2.39,2.96,0,2.97.83.07,1.73-.13,2.51-.13,4.14,0,7.54-.79,9.63-4.06l1.06-2.49,10.39-5.16c5.21-1.71,8.9,3.73,5.07,7.52-7.25,5.29-15.01,9.86-23.16,13.62-5.73,3.49-11.47,3.37-17.21,0l-10.15-4.37h0ZM57,30.91c-.06-.05-.14-.09-.22-.12-.06-.01-.12-.01-.18,0-.16.02-.3.09-.4.21l-1.4,1.65c-.26.31-.69.39-1.05.2-.19-.1-.39-.19-.58-.28s-.44-.17-.65-.24-.42-.13-.67-.2-.46-.13-.67-.18c-.37-.09-.63-.42-.64-.79l-.21-2.27c0-.08-.03-.16-.07-.23-.03-.06-.08-.11-.13-.16-.05-.05-.11-.08-.18-.09-.07-.02-.15-.02-.23,0l-2.93.29c-.08.01-.15.03-.23.07-.07.04-.14.09-.19.15-.04.05-.08.12-.1.18h0c-.01.06-.01.12,0,.18l.2,2.14c.04.41-.22.79-.62.9-.18.06-.37.13-.6.23s-.42.19-.6.28h-.03c-.19.1-.39.2-.55.31h-.06c-.19.11-.37.23-.55.34-.31.2-.71.19-1-.04l-1.91-1.48c-.06-.05-.12-.08-.19-.11-.05-.01-.11-.01-.17,0-.08.01-.16.04-.23.07h-.03c-.05.04-.1.08-.14.13l-1.85,2.24c-.06.07-.1.14-.13.23-.01.06-.01.12,0,.18v.04c0,.07.02.13.06.19v.03c.04.05.08.1.13.14l1.65,1.4c.31.26.4.7.2,1.05-.1.18-.19.36-.27.55-.09.21-.17.43-.24.65-.07.2-.14.42-.21.67s-.13.46-.18.67c-.07.37-.38.65-.76.68l-2.28.21c-.08,0-.16.03-.23.07-.06.03-.12.08-.17.13-.04.05-.07.11-.09.18-.01.07-.01.15,0,.22l.29,2.93c0,.08.03.16.07.23.04.07.09.14.15.19.06.04.12.07.18.1.07.01.14.01.2,0l2.14-.2c.4-.02.76.23.87.62.06.18.14.38.23.6s.18.41.28.6l.04.08c.09.17.19.36.3.55l.37.61c.2.31.17.71-.06.99l-1.53,1.88c-.04.05-.07.11-.1.18,0,.05,0,.11,0,.16,0,.08.03.16.07.23.04.07.08.12.14.17.76.63,1.54,1.26,2.3,1.9.05.04.11.06.17.08.07.01.14.01.21,0h0c.08,0,.17-.03.24-.07h.03c.05-.04.1-.07.15-.12l1.38-1.65c.26-.31.7-.4,1.05-.21.19.1.39.19.58.28.22.09.43.17.65.24s.42.14.67.21.46.13.67.18c.37.08.64.41.66.79l.21,2.24c0,.08.03.16.07.23.03.06.07.12.13.17.05.04.11.07.18.09.07.01.15.01.23,0l2.92-.29c.08,0,.16-.03.24-.07h0c.07-.03.13-.08.18-.13.05-.06.09-.13.12-.2.02-.07.02-.13,0-.2l-.2-2.15c-.04-.39.19-.75.55-.88.22-.07.43-.15.64-.24h.07c.18-.08.35-.17.55-.26h.03c.21-.1.41-.22.6-.33l.61-.37c.31-.2.71-.17.99.06l1.86,1.52c.06.04.12.07.18.1h0c.06.01.12.01.18,0,.08,0,.16-.02.23-.06.06-.04.12-.09.17-.15.63-.76,1.26-1.54,1.9-2.3.04-.05.07-.1.08-.16.01-.07.01-.14,0-.21h0c0-.08-.03-.17-.07-.24-.04-.07-.08-.13-.14-.18l-1.65-1.35c-.32-.25-.41-.7-.22-1.06.1-.19.19-.39.28-.58.09-.23.18-.44.24-.64s.13-.43.2-.68.13-.45.18-.67c.09-.38.42-.65.81-.66l2.29-.24c.08,0,.16-.03.23-.07.06-.04.11-.08.16-.13.04-.05.07-.11.09-.18h0c.01-.07.01-.14,0-.21l-.29-2.92c0-.08-.03-.15-.07-.23v-.03c-.04-.06-.08-.11-.14-.15-.05-.04-.12-.08-.18-.1h0c-.06-.01-.12-.01-.18,0l-2.17.15c-.38.04-.75-.19-.88-.55-.07-.2-.15-.42-.25-.64s-.19-.45-.29-.63v-.04c-.09-.19-.2-.37-.31-.55-.11-.19-.24-.37-.36-.55-.21-.31-.19-.73.05-1.02l1.51-1.87c.05-.06.09-.12.11-.19.01-.05.01-.11,0-.16-.01-.08-.04-.16-.07-.23v-.04s-.07-.09-.12-.13l-2.07-1.7c-.11-.03-.21-.08-.3-.15ZM79.81,44.48c-.18-.15-.4-.22-.63-.2-.23.03-.44.14-.58.31l-.84,1.02c-.27-.14-.55-.26-.83-.35-.3-.09-.55-.18-.87-.25l-.13-1.42c-.02-.23-.13-.44-.3-.58-.17-.15-.4-.21-.63-.18l-1.8.18c-.21.03-.41.13-.55.3-.15.17-.22.4-.2.63l.12,1.31c-.29.09-.57.21-.84.36-.27.13-.53.28-.77.45l-1.14-.92c-.17-.15-.39-.23-.62-.2-.23.03-.44.14-.58.32l-1.1,1.37c-.31.36-.26.9.1,1.2,0,0,.01,0,.02.01l.96.84c-.14.27-.26.55-.35.83-.1.3-.18.55-.25.87l-1.42.13c-.23.02-.44.13-.58.3-.14.18-.19.41-.15.63l.18,1.79c.02.23.13.43.3.58.17.15.4.22.63.2l1.31-.12c.09.29.2.57.34.84.14.27.29.54.45.79l-.92,1.1c-.15.17-.23.39-.2.62.03.22.14.41.31.55l1.4,1.2c.18.15.41.21.63.18.23-.02.44-.13.6-.3l.85-1.04c.27.14.55.26.83.35.29.1.58.18.87.25l.13,1.43c.02.22.13.43.3.58.18.15.41.22.63.19l1.79-.18c.22-.02.43-.13.58-.3.15-.17.22-.4.2-.63l-.13-1.31c.29-.09.57-.21.84-.36.27-.13.53-.28.79-.45l1.1.92c.17.15.4.22.63.2.23-.02.44-.13.58-.31l1.15-1.39c.15-.18.21-.41.19-.63-.02-.23-.13-.44-.3-.6l-1.04-.84c.16-.26.29-.54.39-.83.1-.28.18-.57.25-.87l1.43-.13c.22-.03.41-.14.55-.3.15-.18.22-.41.19-.63l-.18-1.79c-.03-.21-.14-.41-.3-.55-.17-.15-.4-.23-.63-.2l-1.31.13c-.1-.29-.22-.57-.36-.84-.13-.27-.28-.53-.45-.77l.92-1.14c.15-.17.22-.39.2-.62-.03-.23-.14-.44-.31-.58l-1.38-1.13h-.04v-.02ZM74.36,48.24c.47-.04.94,0,1.39.14.43.14.83.35,1.19.64.35.29.64.64.85,1.04.22.41.36.86.4,1.33.04.47,0,.94-.14,1.39-.26.87-.85,1.61-1.65,2.05-.41.22-.86.35-1.33.39-.47.05-.94,0-1.39-.14-.43-.14-.84-.35-1.19-.63-.35-.29-.63-.65-.85-1.05-.24-.41-.38-.87-.42-1.34-.15-1.41.57-2.77,1.82-3.43.41-.23.86-.36,1.33-.4h0ZM57.3,29.17c.19.06.38.14.55.25.12.03.23.09.33.17l2.22,1.85c.21.17.38.37.52.6l.04.07c.14.26.23.54.26.84.04.31,0,.62-.09.92-.09.26-.22.5-.39.71l-1.14,1.41.07.12c.14.24.28.49.39.75.13.26.24.49.33.71l.04.11,1.49-.14c.29-.03.58,0,.86.08h.04c.26.08.49.21.71.38l.08.07c.2.17.36.38.49.61l.04.07c.13.25.21.52.24.8,0,.74.19,2.17.29,2.94.03.28.01.56-.06.83v.05c-.08.28-.22.55-.41.78h0c-.18.22-.4.41-.66.55-.26.13-.55.22-.84.25l-1.75.15-.04.16c-.06.22-.14.47-.24.75s-.18.55-.28.76l-.04.09,1.21.98c.23.2.42.44.55.71.1.24.16.5.18.76v.03c.04.3.01.6-.07.88-.08.27-.2.52-.37.74l-1.92,2.33c-.18.23-.41.41-.67.55-.26.15-.55.24-.84.26-.29.03-.59,0-.88-.07h-.04c-.25-.09-.49-.21-.69-.37l-1.43-1.16-.14.08c-.24.14-.48.27-.71.38s-.42.21-.65.31l-.2.07.15,1.49c.03.31,0,.62-.09.91-.09.27-.24.52-.42.74l-.03.03c-.18.2-.39.37-.62.5h-.06c-.25.13-.52.21-.79.24-.74,0-2.17.19-2.94.29-.3.03-.6,0-.88-.07-.28-.09-.55-.23-.78-.42h-.03c-.21-.19-.39-.41-.52-.66-.14-.26-.22-.55-.25-.84l-.16-1.75-.15-.04-.75-.24c-.26-.09-.55-.18-.76-.28l-.1-.04-.99,1.21c-.18.21-.4.38-.65.5l-.06.04c-.24.11-.5.19-.77.22h-.03c-.3.04-.6.01-.89-.07-.26-.08-.51-.21-.73-.37l-2.33-1.92c-.22-.19-.41-.41-.55-.67-.14-.26-.23-.54-.26-.83-.04-.3,0-.6.09-.88.08-.25.21-.49.37-.7l1.16-1.43-.06-.14c-.12-.2-.24-.42-.35-.66h0c-.14-.25-.25-.5-.36-.74l-.05-.13-1.48.14c-.3.04-.61,0-.9-.09-.26-.08-.5-.22-.71-.39l-.08-.06c-.22-.19-.41-.43-.55-.69-.13-.25-.21-.52-.24-.79,0-.74-.19-2.16-.29-2.94-.05-.3-.03-.61.05-.91.09-.28.23-.55.42-.78h0c.19-.22.41-.41.66-.55.26-.14.55-.22.84-.25l1.75-.16.04-.16c.07-.22.14-.47.24-.74s.19-.55.28-.76l.04-.1-1.13-.96c-.22-.17-.41-.38-.55-.61l-.03-.06c-.13-.24-.2-.51-.23-.78v-.04c-.03-.3,0-.6.09-.89.09-.28.24-.55.43-.78l1.85-2.26c.17-.21.37-.38.61-.51l.07-.04c.26-.14.54-.23.84-.26.3-.04.61,0,.9.09.26.09.5.22.71.39l1.42,1.14.14-.11c.23-.13.46-.25.69-.37s.49-.24.71-.34l.13-.05-.15-1.48c-.03-.29,0-.58.08-.86v-.04c.08-.26.21-.49.38-.71l.08-.04c.19-.22.42-.41.68-.55.25-.13.52-.22.8-.25.74,0,2.17-.19,2.94-.29.3-.04.6-.01.88.07.28.08.55.22.78.41h0c.22.18.41.41.55.66.14.27.23.56.26.86l.15,1.75.16.04c.22.06.47.14.75.23l.76.28.11.05.95-1.15c.19-.23.41-.41.67-.55.26-.15.55-.24.85-.28.3-.04.6,0,.89.08h-.03ZM48.56,35.58c.42-.04.85-.04,1.27,0,.44.04.88.13,1.3.26h0c.4.13.8.29,1.17.49l.05.03c.35.19.68.42.99.67h0c.65.55,1.19,1.21,1.59,1.96.21.38.38.79.51,1.21.13.42.21.86.24,1.3h0c.04.42.04.85,0,1.27-.04.44-.12.88-.25,1.3v.06c-.13.38-.28.75-.47,1.1-.2.37-.43.72-.69,1.05l-.06.06c-.54.63-1.19,1.16-1.91,1.55-.39.21-.79.38-1.21.51-.42.12-.86.2-1.3.24-.43.04-.86.04-1.3,0-.44-.04-.88-.13-1.3-.26h0c-.4-.13-.79-.29-1.16-.49-.37-.2-.72-.43-1.05-.69h0c-.32-.27-.62-.57-.88-.89-.27-.33-.51-.69-.72-1.06-.21-.39-.38-.79-.5-1.21-.13-.42-.21-.86-.24-1.3h0c-.04-.42-.04-.85,0-1.27.04-.44.12-.88.25-1.3h0c.13-.4.29-.8.49-1.17l.03-.05c.19-.35.41-.69.67-1l.04-.06c.26-.31.55-.59.86-.84.33-.27.69-.51,1.06-.71.38-.21.79-.38,1.21-.51.43-.12.86-.2,1.3-.24h0ZM49.67,37.27c-.33-.03-.66-.03-.98,0h0c-.32.03-.64.09-.95.18-.3.09-.6.21-.88.36-.29.16-.56.34-.81.55-.23.18-.44.39-.63.61h0c-.19.23-.35.48-.5.74v.04c-.15.28-.27.57-.36.88-.11.32-.2.65-.24.98-.03.33-.03.65,0,.98h0c.03.33.09.65.18.96.09.31.21.61.37.89.16.28.34.55.55.81.19.24.41.46.65.66.24.19.5.37.78.51.28.15.58.27.88.37.31.1.63.16.95.19.33.03.67.03,1,0,.32-.03.65-.09.96-.18.29-.09.58-.21.84-.36.29-.16.56-.34.81-.55.23-.19.44-.39.63-.62h0c.21-.25.39-.51.55-.79.14-.27.26-.55.36-.84v-.03c.1-.31.16-.63.19-.96.03-.33.03-.65,0-.98h0c-.03-.33-.09-.65-.18-.96-.09-.3-.21-.6-.36-.88-.16-.29-.34-.56-.55-.81-.19-.24-.41-.46-.65-.66-.23-.18-.48-.35-.73-.49h-.04c-.28-.15-.58-.27-.88-.37-.31-.1-.63-.16-.95-.19v-.05ZM31.77,74.03c1.08,0,1.97.87,1.97,1.96,0,1.08-.87,1.97-1.96,1.97-1.08,0-1.97-.87-1.97-1.96,0,0,0,0,0,0,0-1.08.88-1.96,1.96-1.96Z"/>
  <rect class="cls-2" x="12.67" y="12.67" width="88.04" height="88.04" rx="6.13" ry="6.13"/>
</svg>