<?xml version="1.0" encoding="UTF-8"?>
<svg id="Calque_1" data-name="Calque 1" xmlns="http://www.w3.org/2000/svg" xmlns:xlink="http://www.w3.org/1999/xlink" viewBox="0 0 328.7 328.7">
  <defs>
    <style>
      .cls-1 {
        fill: #010101;
      }

      .cls-1, .cls-2 {
        stroke-width: 0px;
      }

      .cls-3 {
        fill: none;
      }

      .cls-3, .cls-4 {
        stroke: #1d1d1b;
        stroke-miterlimit: 10;
        stroke-width: 5px;
      }

      .cls-4 {
        fill: url(#Dégradé_sans_nom_57);
      }

      .cls-2 {
        fill: #1d1d1b;
      }
    </style>
    <linearGradient id="Dégradé_sans_nom_57" data-name="Dégradé sans nom 57" x1="164.57" y1="320.05" x2="164.57" y2="10.05" gradientUnits="userSpaceOnUse">
      <stop offset="0" stop-color="#cd9726"/>
      <stop offset=".15" stop-color="#863412"/>
      <stop offset=".3" stop-color="#e7b845"/>
      <stop offset=".32" stop-color="#efcb46"/>
      <stop offset=".34" stop-color="#f8dd47"/>
      <stop offset=".37" stop-color="#fde948"/>
      <stop offset=".4" stop-color="#ffed49"/>
      <stop offset=".55" stop-color="#e7b845"/>
      <stop offset=".7" stop-color="#cd9726"/>
      <stop offset=".85" stop-color="#f8ed73"/>
      <stop offset="1" stop-color="#f2b939"/>
    </linearGradient>
  </defs>
  <circle class="cls-4" cx="164.57" cy="165.05" r="155"/>
  <circle class="cls-3" cx="164.57" cy="165.05" r="137"/>
  <g>
    <path class="cls-1" d="M189.02,81.76h-27.01c-1.02,0-1.85.83-1.85,1.85s.83,1.85,1.85,1.85h27.01c1.02,0,1.85-.83,1.85-1.85s-.83-1.85-1.85-1.85ZM188.96,91.56h-26.95c-1.02,0-1.85.83-1.85,1.85s.83,1.84,1.85,1.84h26.95c1.02,0,1.85-.82,1.85-1.84s-.83-1.85-1.85-1.85ZM187.11,65.49c-.87,0-1.69.34-2.3.95-.61.61-.95,1.44-.95,2.31,0,1.8,1.46,3.26,3.26,3.26s3.26-1.46,3.26-3.26c0-1.8-1.46-3.26-3.26-3.26ZM179.28,101.42h-17.25c-1.02,0-1.85.83-1.85,1.84s.83,1.85,1.85,1.85h17.25c1.02,0,1.85-.83,1.85-1.85s-.83-1.84-1.85-1.84ZM172.1,65.49c-.87,0-1.69.34-2.31.95-.6.61-.94,1.43-.94,2.29,0,1.79,1.45,3.25,3.24,3.25,1.79,0,3.25-1.45,3.25-3.25,0-1.79-1.45-3.25-3.24-3.25ZM157.09,65.49c-.87,0-1.69.34-2.31.95-.61.61-.95,1.44-.95,2.31,0,1.8,1.46,3.26,3.26,3.26s3.26-1.46,3.26-3.26c0-1.8-1.46-3.26-3.26-3.26ZM142.08,65.49c-.87,0-1.69.34-2.31.95-.6.61-.94,1.43-.94,2.29,0,1.79,1.45,3.25,3.24,3.25,1.79,0,3.25-1.45,3.25-3.25,0-1.79-1.45-3.25-3.24-3.25ZM142.08,65.49c-.87,0-1.69.34-2.31.95-.6.61-.94,1.43-.94,2.29,0,1.79,1.45,3.25,3.24,3.25,1.79,0,3.25-1.45,3.25-3.25,0-1.79-1.45-3.25-3.24-3.25ZM157.09,65.49c-.87,0-1.69.34-2.31.95-.61.61-.95,1.44-.95,2.31,0,1.8,1.46,3.26,3.26,3.26s3.26-1.46,3.26-3.26c0-1.8-1.46-3.26-3.26-3.26ZM172.1,65.49c-.87,0-1.69.34-2.31.95-.6.61-.94,1.43-.94,2.29,0,1.79,1.45,3.25,3.24,3.25,1.79,0,3.25-1.45,3.25-3.25,0-1.79-1.45-3.25-3.24-3.25ZM187.11,65.49c-.87,0-1.69.34-2.3.95-.61.61-.95,1.44-.95,2.31,0,1.8,1.46,3.26,3.26,3.26s3.26-1.46,3.26-3.26c0-1.8-1.46-3.26-3.26-3.26ZM189.02,81.76h-27.01c-1.02,0-1.85.83-1.85,1.85s.83,1.85,1.85,1.85h27.01c1.02,0,1.85-.83,1.85-1.85s-.83-1.85-1.85-1.85ZM188.96,91.56h-26.95c-1.02,0-1.85.83-1.85,1.85s.83,1.84,1.85,1.84h26.95c1.02,0,1.85-.82,1.85-1.84s-.83-1.85-1.85-1.85ZM179.28,101.42h-17.25c-1.02,0-1.85.83-1.85,1.84s.83,1.85,1.85,1.85h17.25c1.02,0,1.85-.83,1.85-1.85s-.83-1.84-1.85-1.84ZM142.08,65.49c-.87,0-1.69.34-2.31.95-.6.61-.94,1.43-.94,2.29,0,1.79,1.45,3.25,3.24,3.25,1.79,0,3.25-1.45,3.25-3.25,0-1.79-1.45-3.25-3.24-3.25ZM157.09,65.49c-.87,0-1.69.34-2.31.95-.61.61-.95,1.44-.95,2.31,0,1.8,1.46,3.26,3.26,3.26s3.26-1.46,3.26-3.26c0-1.8-1.46-3.26-3.26-3.26ZM172.1,65.49c-.87,0-1.69.34-2.31.95-.6.61-.94,1.43-.94,2.29,0,1.79,1.45,3.25,3.24,3.25,1.79,0,3.25-1.45,3.25-3.25,0-1.79-1.45-3.25-3.24-3.25ZM179.28,101.42h-17.25c-1.02,0-1.85.83-1.85,1.84s.83,1.85,1.85,1.85h17.25c1.02,0,1.85-.83,1.85-1.85s-.83-1.84-1.85-1.84ZM187.11,65.49c-.87,0-1.69.34-2.3.95-.61.61-.95,1.44-.95,2.31,0,1.8,1.46,3.26,3.26,3.26s3.26-1.46,3.26-3.26c0-1.8-1.46-3.26-3.26-3.26ZM188.96,91.56h-26.95c-1.02,0-1.85.83-1.85,1.85s.83,1.84,1.85,1.84h26.95c1.02,0,1.85-.82,1.85-1.84s-.83-1.85-1.85-1.85ZM189.02,81.76h-27.01c-1.02,0-1.85.83-1.85,1.85s.83,1.85,1.85,1.85h27.01c1.02,0,1.85-.83,1.85-1.85s-.83-1.85-1.85-1.85ZM189.02,81.76h-27.01c-1.02,0-1.85.83-1.85,1.85s.83,1.85,1.85,1.85h27.01c1.02,0,1.85-.83,1.85-1.85s-.83-1.85-1.85-1.85ZM188.96,91.56h-26.95c-1.02,0-1.85.83-1.85,1.85s.83,1.84,1.85,1.84h26.95c1.02,0,1.85-.82,1.85-1.84s-.83-1.85-1.85-1.85ZM187.11,65.49c-.87,0-1.69.34-2.3.95-.61.61-.95,1.44-.95,2.31,0,1.8,1.46,3.26,3.26,3.26s3.26-1.46,3.26-3.26c0-1.8-1.46-3.26-3.26-3.26ZM179.28,101.42h-17.25c-1.02,0-1.85.83-1.85,1.84s.83,1.85,1.85,1.85h17.25c1.02,0,1.85-.83,1.85-1.85s-.83-1.84-1.85-1.84ZM172.1,65.49c-.87,0-1.69.34-2.31.95-.6.61-.94,1.43-.94,2.29,0,1.79,1.45,3.25,3.24,3.25,1.79,0,3.25-1.45,3.25-3.25,0-1.79-1.45-3.25-3.24-3.25ZM157.09,65.49c-.87,0-1.69.34-2.31.95-.61.61-.95,1.44-.95,2.31,0,1.8,1.46,3.26,3.26,3.26s3.26-1.46,3.26-3.26c0-1.8-1.46-3.26-3.26-3.26ZM142.08,65.49c-.87,0-1.69.34-2.31.95-.6.61-.94,1.43-.94,2.29,0,1.79,1.45,3.25,3.24,3.25,1.79,0,3.25-1.45,3.25-3.25,0-1.79-1.45-3.25-3.24-3.25ZM142.08,65.49c-.87,0-1.69.34-2.31.95-.6.61-.94,1.43-.94,2.29,0,1.79,1.45,3.25,3.24,3.25,1.79,0,3.25-1.45,3.25-3.25,0-1.79-1.45-3.25-3.24-3.25ZM157.09,65.49c-.87,0-1.69.34-2.31.95-.61.61-.95,1.44-.95,2.31,0,1.8,1.46,3.26,3.26,3.26s3.26-1.46,3.26-3.26c0-1.8-1.46-3.26-3.26-3.26ZM172.1,65.49c-.87,0-1.69.34-2.31.95-.6.61-.94,1.43-.94,2.29,0,1.79,1.45,3.25,3.24,3.25,1.79,0,3.25-1.45,3.25-3.25,0-1.79-1.45-3.25-3.24-3.25ZM179.28,101.42h-17.25c-1.02,0-1.85.83-1.85,1.84s.83,1.85,1.85,1.85h17.25c1.02,0,1.85-.83,1.85-1.85s-.83-1.84-1.85-1.84ZM187.11,65.49c-.87,0-1.69.34-2.3.95-.61.61-.95,1.44-.95,2.31,0,1.8,1.46,3.26,3.26,3.26s3.26-1.46,3.26-3.26c0-1.8-1.46-3.26-3.26-3.26ZM188.96,91.56h-26.95c-1.02,0-1.85.83-1.85,1.85s.83,1.84,1.85,1.84h26.95c1.02,0,1.85-.82,1.85-1.84s-.83-1.85-1.85-1.85ZM189.02,81.76h-27.01c-1.02,0-1.85.83-1.85,1.85s.83,1.85,1.85,1.85h27.01c1.02,0,1.85-.83,1.85-1.85s-.83-1.85-1.85-1.85ZM142.08,65.49c-.87,0-1.69.34-2.31.95-.6.61-.94,1.43-.94,2.29,0,1.79,1.45,3.25,3.24,3.25,1.79,0,3.25-1.45,3.25-3.25,0-1.79-1.45-3.25-3.24-3.25ZM157.09,65.49c-.87,0-1.69.34-2.31.95-.61.61-.95,1.44-.95,2.31,0,1.8,1.46,3.26,3.26,3.26s3.26-1.46,3.26-3.26c0-1.8-1.46-3.26-3.26-3.26ZM172.1,65.49c-.87,0-1.69.34-2.31.95-.6.61-.94,1.43-.94,2.29,0,1.79,1.45,3.25,3.24,3.25,1.79,0,3.25-1.45,3.25-3.25,0-1.79-1.45-3.25-3.24-3.25ZM179.28,101.42h-17.25c-1.02,0-1.85.83-1.85,1.84s.83,1.85,1.85,1.85h17.25c1.02,0,1.85-.83,1.85-1.85s-.83-1.84-1.85-1.84ZM187.11,65.49c-.87,0-1.69.34-2.3.95-.61.61-.95,1.44-.95,2.31,0,1.8,1.46,3.26,3.26,3.26s3.26-1.46,3.26-3.26c0-1.8-1.46-3.26-3.26-3.26ZM188.96,91.56h-26.95c-1.02,0-1.85.83-1.85,1.85s.83,1.84,1.85,1.84h26.95c1.02,0,1.85-.82,1.85-1.84s-.83-1.85-1.85-1.85ZM189.02,81.76h-27.01c-1.02,0-1.85.83-1.85,1.85s.83,1.85,1.85,1.85h27.01c1.02,0,1.85-.83,1.85-1.85s-.83-1.85-1.85-1.85ZM189.02,81.76h-27.01c-1.02,0-1.85.83-1.85,1.85s.83,1.85,1.85,1.85h27.01c1.02,0,1.85-.83,1.85-1.85s-.83-1.85-1.85-1.85ZM188.96,91.56h-26.95c-1.02,0-1.85.83-1.85,1.85s.83,1.84,1.85,1.84h26.95c1.02,0,1.85-.82,1.85-1.84s-.83-1.85-1.85-1.85ZM187.11,65.49c-.87,0-1.69.34-2.3.95-.61.61-.95,1.44-.95,2.31,0,1.8,1.46,3.26,3.26,3.26s3.26-1.46,3.26-3.26c0-1.8-1.46-3.26-3.26-3.26ZM179.28,101.42h-17.25c-1.02,0-1.85.83-1.85,1.84s.83,1.85,1.85,1.85h17.25c1.02,0,1.85-.83,1.85-1.85s-.83-1.84-1.85-1.84ZM172.1,65.49c-.87,0-1.69.34-2.31.95-.6.61-.94,1.43-.94,2.29,0,1.79,1.45,3.25,3.24,3.25,1.79,0,3.25-1.45,3.25-3.25,0-1.79-1.45-3.25-3.24-3.25ZM157.09,65.49c-.87,0-1.69.34-2.31.95-.61.61-.95,1.44-.95,2.31,0,1.8,1.46,3.26,3.26,3.26s3.26-1.46,3.26-3.26c0-1.8-1.46-3.26-3.26-3.26ZM142.08,65.49c-.87,0-1.69.34-2.31.95-.6.61-.94,1.43-.94,2.29,0,1.79,1.45,3.25,3.24,3.25,1.79,0,3.25-1.45,3.25-3.25,0-1.79-1.45-3.25-3.24-3.25ZM142.08,65.49c-.87,0-1.69.34-2.31.95-.6.61-.94,1.43-.94,2.29,0,1.79,1.45,3.25,3.24,3.25,1.79,0,3.25-1.45,3.25-3.25,0-1.79-1.45-3.25-3.24-3.25ZM157.09,65.49c-.87,0-1.69.34-2.31.95-.61.61-.95,1.44-.95,2.31,0,1.8,1.46,3.26,3.26,3.26s3.26-1.46,3.26-3.26c0-1.8-1.46-3.26-3.26-3.26ZM172.1,65.49c-.87,0-1.69.34-2.31.95-.6.61-.94,1.43-.94,2.29,0,1.79,1.45,3.25,3.24,3.25,1.79,0,3.25-1.45,3.25-3.25,0-1.79-1.45-3.25-3.24-3.25ZM179.28,101.42h-17.25c-1.02,0-1.85.83-1.85,1.84s.83,1.85,1.85,1.85h17.25c1.02,0,1.85-.83,1.85-1.85s-.83-1.84-1.85-1.84ZM187.11,65.49c-.87,0-1.69.34-2.3.95-.61.61-.95,1.44-.95,2.31,0,1.8,1.46,3.26,3.26,3.26s3.26-1.46,3.26-3.26c0-1.8-1.46-3.26-3.26-3.26ZM188.96,91.56h-26.95c-1.02,0-1.85.83-1.85,1.85s.83,1.84,1.85,1.84h26.95c1.02,0,1.85-.82,1.85-1.84s-.83-1.85-1.85-1.85ZM189.02,81.76h-27.01c-1.02,0-1.85.83-1.85,1.85s.83,1.85,1.85,1.85h27.01c1.02,0,1.85-.83,1.85-1.85s-.83-1.85-1.85-1.85ZM189.02,81.76h-27.01c-1.02,0-1.85.83-1.85,1.85s.83,1.85,1.85,1.85h27.01c1.02,0,1.85-.83,1.85-1.85s-.83-1.85-1.85-1.85ZM188.96,91.56h-26.95c-1.02,0-1.85.83-1.85,1.85s.83,1.84,1.85,1.84h26.95c1.02,0,1.85-.82,1.85-1.84s-.83-1.85-1.85-1.85ZM187.11,65.49c-.87,0-1.69.34-2.3.95-.61.61-.95,1.44-.95,2.31,0,1.8,1.46,3.26,3.26,3.26s3.26-1.46,3.26-3.26c0-1.8-1.46-3.26-3.26-3.26ZM179.28,101.42h-17.25c-1.02,0-1.85.83-1.85,1.84s.83,1.85,1.85,1.85h17.25c1.02,0,1.85-.83,1.85-1.85s-.83-1.84-1.85-1.84ZM172.1,65.49c-.87,0-1.69.34-2.31.95-.6.61-.94,1.43-.94,2.29,0,1.79,1.45,3.25,3.24,3.25,1.79,0,3.25-1.45,3.25-3.25,0-1.79-1.45-3.25-3.24-3.25ZM157.09,65.49c-.87,0-1.69.34-2.31.95-.61.61-.95,1.44-.95,2.31,0,1.8,1.46,3.26,3.26,3.26s3.26-1.46,3.26-3.26c0-1.8-1.46-3.26-3.26-3.26ZM142.08,65.49c-.87,0-1.69.34-2.31.95-.6.61-.94,1.43-.94,2.29,0,1.79,1.45,3.25,3.24,3.25,1.79,0,3.25-1.45,3.25-3.25,0-1.79-1.45-3.25-3.24-3.25Z"/>
    <path class="cls-1" d="M225.36,92.34c-1.3-1.31-3.11-2.12-5.09-2.12h-19.08v-32.43c0-1.08-.88-1.96-1.97-1.96h-69.29c-1.08,0-1.96.88-1.96,1.96v32.43h-19.1c-1.99,0-3.79.81-5.1,2.12-1.31,1.3-2.11,3.11-2.11,5.1v76.55c0,1.99.81,3.8,2.11,5.1,1.31,1.31,3.12,2.12,5.1,2.12h111.39c1.75,0,3.36-.63,4.61-1.68.24-.12.47-.28.67-.47.31-.3.54-.65.68-1.02.79-1.16,1.25-2.55,1.25-4.05v-76.55c0-1.99-.81-3.79-2.12-5.1ZM201.19,95.76h16.8l-16.8,14.32v-14.32ZM131.9,59.76h65.38v53.65l-11.96,10.19-3.01,2.56-16.76,14.28-18.15-14.8-3.04-2.48-12.46-10.17v-53.25ZM127.97,95.76v14.05l-17.23-14.05h17.23ZM107.2,170.95v-70.96l20.77,16.94,15.39,12.55,2.87,2.34-39.03,39.13ZM110.29,175.67l40.24-40.35,13.31,10.86c.51.41,1.13.62,1.74.62.65,0,1.29-.23,1.79-.66l12.68-10.81,38.46,40.34h-108.23ZM221.95,171.26l-37.68-39.53,2.01-1.72,14.91-12.7,20.76-17.68v71.62Z"/>
    <path class="cls-1" d="M154.41,97.1v5.83c-1.57,1.14-3.47,1.72-5.41,1.67-3.41,0-5.94-.85-7.58-2.55-1.55-1.56-2.59-3.55-2.98-5.71h-2.61l.14-.59.54-2.26h1.59c-.03-.27-.04-.55-.03-.82,0-.42,0-.72.03-.91h-1.92l.37-1.55.31-1.31h1.58c1.23-5.34,4.65-8.01,10.26-8.01,1.95.04,3.86.58,5.54,1.59l-1.29,5.67c-1.31-1.31-2.67-1.96-4.08-1.96-1.74-.1-3.31,1.03-3.77,2.7h5.18l-.28,1.31-.33,1.55h-5.06v1.73h5.33l-.49,2.26-.13.59h-4.37c.56,1.94,1.8,2.91,3.69,2.91,2.12-.02,4.17-.78,5.78-2.16Z"/>
    <path class="cls-1" d="M188.96,91.56h-26.95c-1.02,0-1.85.83-1.85,1.85s.83,1.84,1.85,1.84h26.95c1.02,0,1.85-.82,1.85-1.84s-.83-1.85-1.85-1.85Z"/>
  </g>
  <g>
    <path class="cls-2" d="M108.74,224.5c-4.33-.55-8.85,2.09-12.35,4.33-.17.11-.33.22-.5.33.17.16.34.32.49.51,1.97,2.38-.21,4.26-2.15,5.7-2.39,1.76-5.11,2.97-8.01,3.58-.97.2-2.17-.92-2.18-1.88-.02-2.7,2.17-4.46,4.08-6.04.73-.6,1.47-1.18,2.23-1.75,0,0,0,0-.01,0-2.15-.53-4.29-1.06-6.44-1.58-4.95-1.22-12.29-2.8-13.3-8.87-.52-3.14,1.47-5.87,3.58-7.96,2.33-2.31,4.98-4.28,7.81-5.94,2.9-1.7,6.01-3.03,9.24-3.94,2.83-.8,6.64-1.95,9.53-.95,2.51.87,4.17,3.41,4.46,5.98.37,3.32-1.68,6.17-3.56,8.69-.69.92-2.97-1.22-2.22-2.22,1.78-2.38,4.64-6.21,2.72-9.31-.95-1.54-3.54-.89-5-.64-1.62.27-3.21.65-4.78,1.12-5.83,1.77-11.23,4.88-15.63,9.11-1.95,1.87-4.63,4.86-3.43,7.82.86,2.13,3.73,3.02,5.74,3.61,3.13.92,6.36,1.6,9.53,2.38,1.3.32,2.8.55,4.21.97.46-.31.92-.62,1.39-.92,3.79-2.42,8.59-5.25,13.28-4.65.73.09,1.43.62,1.74,1.3.2.42.29,1.34-.45,1.25ZM94.25,230.27c-1.19.84-2.36,1.72-3.49,2.63-.89.73-2.02,1.55-2.88,2.52,2.38-.96,4.55-2.37,6.38-4.22.55-.56.72-.64,0-.93Z"/>
    <path class="cls-2" d="M136.08,224.54c-2.32,1.86-4.7,3.71-7.29,5.19-.97.55-2.1,1.2-3.25,1.24-1.2.05-2.37-.79-2.7-1.96-.14-.5-.04-1.02.05-1.52,0-.03,0-.05.01-.08-.13.05-.25.1-.32.15-.46.28-.89.64-1.34.95-.89.63-1.78,1.27-2.67,1.91-1.01.72-2.57-1.02-2.35-2.02.24-1.07.48-2.14.72-3.21.06-.26.17-.59.28-.94-.41.24-.79.49-1.1.66-1.08.59-2.12,1.25-3.13,1.95-1.88,1.31-3.63,2.81-5.25,4.43-.78.78-2.49-.93-2.38-1.76.33-2.49,1.04-4.82,2.21-7.04.64-1.21,2.99.82,2.47,1.81-.23.44-.44.88-.64,1.34,2.2-1.71,4.58-3.18,7.1-4.32,1.59-.71,3.38.18,3.59,2.03.09.76-.15,1.59-.37,2.37.34-.23.67-.45,1.02-.65.91-.55,1.92-.82,2.93-.38,1.01.44,1.83,1.48,1.94,2.58.02.22.01.45-.02.68,1.3-.32,6.55-2.87,9.03-4.87.97-.78,2.33.73,1.43,1.45Z"/>
    <path class="cls-2" d="M154.4,224.52c-2.18,1.98-4.44,3.94-6.98,5.46-1.17.7-2.58,1.46-3.99,1.29-1.42-.17-2.63-1.33-3.04-2.68-.27-.9-.14-1.72.11-2.53-2.55,1.69-4.67,4.18-7.58,5.32-1.01.4-2.35-1.22-2.14-2.14.64-2.85,2.19-5.8,4.57-7.58,1.89-1.41,4.34-1.07,5.68.71.26-.09.53-.18.8-.25.32-.08.71.06,1.07.31.56.37,1.08.98,1.11,1.48.04.17.03.32-.03.44-.1.76-.35,1.46-.61,2.19-.27.75-.39,1.44-.53,2.17.04,0,.07-.01.11-.02,2.87-.34,7.94-4.13,9.74-5.77.91-.83,2.57.8,1.69,1.59ZM139.21,223.26s-.03,0-.04-.01c-.18.03-.37.06-.55.09-.53.13-.99.49-1.41.84-.65.54-1.22,1.2-1.72,1.87-.02.03-.03.05-.05.08,1.23-1.01,2.43-2.06,3.77-2.87Z"/>
    <path class="cls-2" d="M161.43,224c-.51.05-.99-.32-1.34-.74-.64,0-2.04,1.05-2.39,1.32-.7.54-1.34,1.14-1.94,1.79-1.33,1.42-2.44,3.03-3.26,4.8-.57,1.24-2.87-.77-2.47-1.81,1.06-2.82,2.21-5.6,3.23-8.43.37-1.03,2.1.16,2.45,1.21,2.18-1.67,4.52-2.16,6.17.62.31.53.22,1.18-.45,1.25Z"/>
    <path class="cls-2" d="M189.73,212.41c-.07.69-.72.73-1.25.45-2.5-1.32-5.29-1.58-8.06-1.76-2.73-.18-5.47-.24-8.21-.19-.05,0-.1,0-.14,0-4.2,9.26-7.72,18.93-7.55,29.21.02,1.52-2.53-.2-2.54-1.29-.16-9.76,2.91-18.96,6.77-27.8-4.59.25-9.15.81-13.67,1.68-1.15.22-3-2.24-1.81-2.47,5.49-1.06,11.06-1.69,16.66-1.85,1.01-2.21,2.06-4.4,3.1-6.58.58-1.22,2.96.79,2.47,1.81-.75,1.56-1.5,3.12-2.24,4.7,5.08-.06,10.7-.02,15.17,2.34.55.29,1.36,1.04,1.3,1.74Z"/>
    <path class="cls-2" d="M212.88,217.05c-2.66,4.37-6.55,7.84-10.67,10.81-4.3,3.11-8.97,5.66-13.89,7.63-.05.33-.1.67-.15,1-.21,1.56-2.69-.21-2.55-1.29.05-.38.11-.77.17-1.15-.09-.3-.07-.57.12-.75,1.51-8.61,5.51-16.61,11.6-22.93.84-.87,3.06,1.35,2.22,2.22-5.2,5.39-8.92,12.1-10.71,19.35,4-1.8,7.82-3.99,11.36-6.6,3.52-2.59,6.88-5.54,9.38-9.15,1.78-2.58,5.44-9.34,1.19-11.43-1.72-.84-3.84-.79-5.7-.64-2.36.19-4.71.62-6.99,1.25-4.52,1.23-8.79,3.23-12.64,5.92-1.04.72-3.14-1.58-2.22-2.22,4.99-3.48,10.64-5.91,16.64-6.97,4.27-.76,9.5-1.34,12.93,1.92,3.85,3.66,2.31,9.05-.11,13.04Z"/>
    <path class="cls-2" d="M230.82,224.56c-3.79,2.47-7.76,5.31-12.06,6.84-1.58.56-3.2.67-4.32-.82-1.73-2.31.51-5.71,2.08-7.43,1.42-1.56,3.94-3.31,5.83-1.34,2.71,2.83-3.67,5.3-5.39,6.12,0,0,0,0-.01,0-.15.35-.28.71-.38,1.08,2.84-.37,9.77-3.77,12.6-5.96,1-.77,2.57.91,1.65,1.52Z"/>
    <path class="cls-2" d="M237.78,221.16c-.81,2.08-1.78,4.08-2.97,5.97-.59.95-1.23,1.87-1.92,2.75-.48.6-.99,1.35-1.8,1.5-1.91.35-2.79-1.98-2.82-3.45-.04-2.21.43-4.44,1.28-6.47.51-1.23,2.91.76,2.47,1.81-.44,1.05-.78,2.13-.98,3.25-.05.25-.11.58-.17.95.16-.23.29-.44.38-.56.57-.78,1.11-1.58,1.6-2.41.97-1.64,1.77-3.37,2.46-5.14.48-1.23,2.88.74,2.47,1.81Z"/>
    <path class="cls-2" d="M251.13,224.53c-1.55,1.32-3.17,2.56-4.86,3.7-1.36.92-2.9,2.04-4.54,2.37-1.87.38-3.65-1.36-3.69-3.21-.05-2.12,1.54-4.54,2.58-6.32.69-1.19,3.03.86,2.47,1.81-.82,1.41-1.53,2.79-2.1,4.32-.08.21-.15.41-.23.62,1.94-.35,6.54-2.81,8.77-4.7.95-.8,2.5.66,1.61,1.42ZM242.97,216.3c.63-2.05,1.45-4.01,2.48-5.9.66-1.2,3.01.84,2.47,1.81-1.03,1.88-1.86,3.84-2.48,5.9-.37,1.23-2.81-.71-2.47-1.81Z"/>
    <path class="cls-2" d="M259.47,224.64c-1.76.69-3.43,1.6-4.92,2.76.2.67.27,1.38.17,2.11-.33,2.32-2.65,5.32-5.07,3.31-2.6-2.17-.76-4.85,1.9-7-.66-.84-1.48-1.52-1.98-2.5-.86-1.69-.52-4.38,1.89-4.2.73.05,1.44.65,1.74,1.3.21.45.29,1.3-.45,1.25-1.55-.11-1.09,1.64-.51,2.35.22.27.46.52.69.78,2.38-1.13,4.68-1.73,5.7-2.13,1.07-.42,2.06,1.52.83,2Z"/>
  </g>
</svg>