<?xml version="1.0" encoding="UTF-8"?>
<svg id="Layer_4" data-name="Layer 4" xmlns="http://www.w3.org/2000/svg" viewBox="0 0 113.26 120.52">
  <defs>
    <style>
      .cls-1 {
        fill: none;
        stroke: #000;
        stroke-miterlimit: 10;
      }

      .cls-2 {
        stroke-width: 0px;
      }
    </style>
  </defs>
  <path class="cls-1" d="M78.26,45.29l-18.06-3.19c-1.96-.34-3.98-.34-5.94,0l-18.06,3.19c-.3,3.72-4.59,14.06-4.59,14.06,0,0,4.29,10.33,4.59,14.05l18.05,3.19c1.97.35,3.99.35,5.96,0l18.05-3.19c.29-3.72,4.58-14.05,4.58-14.05,0,0-4.29-10.34-4.58-14.06ZM75.66,71.01l-15.86,2.68c-1.72.29-3.5.29-5.23,0l-15.85-2.68c-.27-3.12-4.03-11.78-4.03-11.78,0,0,3.76-8.67,4.03-11.78l15.85-2.67c1.73-.29,3.5-.29,5.23,0l15.86,2.67c.26,3.11,4.02,11.78,4.02,11.78,0,0-3.76,8.66-4.02,11.78Z"/>
  <path class="cls-2" d="M75.66,47.45l-15.86-2.67c-1.73-.29-3.5-.29-5.23,0l-15.85,2.67c-.27,3.11-4.03,11.78-4.03,11.78,0,0,3.76,8.66,4.03,11.78l15.85,2.68c1.73.29,3.51.29,5.23,0l15.86-2.68c.26-3.12,4.02-11.78,4.02-11.78,0,0-3.76-8.67-4.02-11.78ZM43.96,69.36c.13-.39.27-.76.42-1.14-.45.48-.96.88-1.6,1.11-.19.07-.44-.22-.4-.39.12-.53.4-1.07.84-1.4.31-.23.7-.2.96.03.03-.04.06-.07.09-.11.85-1.08,1.5-2.32,2.12-3.54,0,0,.01,0,.01-.02.02-.03.06-.05.1-.05.02,0,.04,0,.06,0,.14.04.32.23.3.36-.01,0-.01.02-.02.04-.89,1.77-1.79,3.55-2.43,5.43-.07.23-.52-.13-.45-.33ZM49.24,68.55c-.11.18-.23.35-.36.51-.09.11-.18.25-.33.27-.35.07-.51-.36-.52-.63,0-.11,0-.22.02-.32-.56.36-1.15.74-1.77.96-.29.1-.59.12-.8-.15-.32-.43.1-1.06.39-1.37.26-.29.72-.61,1.07-.25.5.52-.67.98-.99,1.13-.03.06-.06.13-.07.2.51-.07,1.74-.67,2.28-1.07.03-.11.07-.22.11-.32.09-.23.53.14.45.33-.08.19-.14.39-.18.6,0,.05-.02.11-.03.17.03-.04.05-.08.07-.1.1-.14.2-.29.29-.45.18-.3.33-.61.46-.94.09-.23.53.14.45.33-.15.38-.33.75-.54,1.1ZM53.78,68.09c-.32.13-.63.3-.91.51.04.12.05.25.03.39-.06.43-.48.98-.93.61-.48-.4-.14-.9.35-1.29-.05-.07-.1-.12-.15-.18-.26.23-.54.43-.82.62-.25.17-.54.38-.84.44-.34.07-.67-.25-.68-.59-.01-.39.29-.84.47-1.17.13-.22.56.16.46.34-.15.26-.28.51-.39.79-.01.04-.03.08-.04.12.36-.07,1.21-.52,1.62-.87-.14-.31-.07-.77.35-.74.14.01.27.12.32.24.04.09.06.24-.08.23-.29-.02-.2.3-.09.43.04.05.08.1.13.15.43-.21.86-.32,1.04-.39.2-.08.38.27.16.36ZM50.74,66.56c.11-.38.27-.74.46-1.09.12-.22.55.15.45.33-.19.35-.34.71-.46,1.09-.07.23-.51-.13-.45-.33ZM48.4,63.82c-.3,0-.56-.12-.75-.31-.19-.2-.31-.46-.31-.75v-11.23c0-.29.11-.55.31-.75.19-.19.45-.31.75-.31h2.61v-4.07c0-.16.12-.29.29-.29h10.53c.16,0,.29.13.29.29v4.07h2.61c.29,0,.56.12.75.31.19.2.31.46.31.75v11.23c0,.22-.07.42-.18.59-.02.06-.06.11-.1.15-.03.03-.06.05-.1.07-.18.15-.42.25-.68.25h-16.33ZM66.95,67.84c-.12,0-.37.19-.44.24-.13.1-.25.21-.36.33-.24.26-.45.56-.6.88-.1.23-.53-.14-.45-.33.04-.1.07-.2.12-.3-.19.15-.39.29-.6.41-.22.13-.48.27-.74.24-.26-.03-.48-.24-.56-.49-.05-.17-.02-.32.02-.47-.47.32-.86.77-1.39.98-.19.08-.43-.22-.4-.39.01-.06.03-.11.05-.17-.13.09-.28.18-.42.26-.17.1-.38.22-.59.23-.22.01-.44-.15-.5-.36-.03-.1-.01-.19,0-.28v-.02s-.04.02-.06.03c-.08.05-.16.12-.24.17-.17.12-.33.24-.5.36-.18.13-.47-.19-.43-.38.05-.19.09-.39.13-.59.02-.05.04-.11.06-.17-.08.05-.15.09-.21.12-.19.11-.39.23-.57.36-.35.24-.67.52-.97.82-.14.14-.46-.17-.44-.32.03-.25.09-.49.17-.73-.19.09-.37.2-.54.33.04.12.05.25.03.39-.06.43-.49.98-.93.61-.48-.4-.14-.9.35-1.29-.13-.16-.28-.28-.37-.46-.16-.31-.1-.81.35-.78.13.01.26.12.32.24.04.09.05.24-.08.23-.29-.02-.2.3-.1.43.05.05.09.1.13.15.44-.21.86-.32,1.05-.39.01,0,.01,0,.02,0,0,0,0-.02.01-.03.12-.22.55.15.45.33-.04.08-.08.16-.11.25.4-.32.84-.59,1.3-.8.3-.13.63.04.66.38.02.14-.02.29-.06.43.06-.04.12-.08.19-.12.16-.1.35-.15.54-.07.18.08.33.28.35.48.01.04.01.08,0,.12.19-.05.87-.37,1.36-.68.11-.18.27-.35.44-.48.34-.26.8-.19,1.04.13.05,0,.1-.03.15-.04.06-.02.13.01.2.06.1.06.2.18.2.27.01.03.01.06,0,.08-.02.14-.07.27-.12.4-.04.14-.07.27-.09.4h.02c.5-.06,1.36-.68,1.73-1.01.05-.14.11-.28.16-.42.07-.19.39.03.45.22.41-.31.84-.4,1.14.11.06.1.04.22-.08.23-.1,0-.18-.06-.25-.13ZM72.18,65.92c-.46-.24-.97-.29-1.48-.32-.51-.03-1.01-.05-1.51-.04h-.03c-.78,1.71-1.42,3.49-1.39,5.39,0,.27-.47-.04-.47-.24-.03-1.8.53-3.49,1.25-5.12-.85.04-1.69.15-2.52.31-.21.04-.55-.42-.33-.46,1.01-.19,2.03-.31,3.06-.34.19-.41.38-.81.57-1.21.11-.23.55.15.46.33-.14.29-.28.58-.41.87.93-.01,1.97,0,2.79.43.1.05.25.19.24.32,0,.13-.13.14-.23.08Z"/>
  <polygon class="cls-2" points="64.4 51.28 62.12 53.22 62.12 51.28 64.4 51.28"/>
  <g>
    <path class="cls-2" d="M54.31,55.95s.08.03.11.07h.01l.12.13"/>
    <polygon class="cls-2" points="51.07 51.4 51.07 53.3 48.73 51.4 51.07 51.4"/>
    <polygon class="cls-2" points="65.04 51.97 65.04 62.47 60.44 57.65 59.51 56.67 59.73 56.49 61.6 54.9 62.18 54.4 65.04 51.97"/>
    <path class="cls-2" d="M51.65,46.8v6.97l2.66,2.18s.24.2.24.2l.96.77.44.37.82.66.66-.56,1.68-1.44,2.49-2.12v-7.03h-9.95ZM54.69,47.68c.16,0,.3.14.3.3s-.14.3-.3.3-.3-.14-.3-.3.14-.3.3-.3ZM52.46,47.98c0-.16.13-.3.3-.3.16,0,.3.14.3.3s-.14.3-.3.3c-.17,0-.3-.14-.3-.3ZM54.91,53.5c-.1.1-.21.18-.35.24-.13.06-.27.09-.43.1v.47h-.29v-.47c-.12,0-.22-.03-.31-.06-.1-.02-.18-.05-.25-.09-.08-.04-.14-.09-.21-.15-.06-.06-.12-.13-.17-.22-.05-.08-.1-.17-.13-.27-.03-.11-.05-.22-.06-.34h0l.46-.09h.01c.02.12.04.23.07.32.03.1.07.17.12.23.06.08.13.14.21.19.08.04.16.07.25.08v-1.44c-.1-.03-.19-.06-.29-.1-.1-.04-.19-.09-.29-.14-.08-.04-.14-.09-.2-.15s-.11-.12-.15-.2v-.02c-.04-.06-.07-.14-.08-.21-.02-.08-.03-.17-.03-.26,0-.12.01-.24.04-.34,0-.04.03-.08.04-.11.06-.14.15-.26.27-.36.08-.07.17-.12.29-.17.11-.04.25-.07.4-.08v-.22h.28v.22c.13.01.25.04.36.08.11.04.2.09.28.16.1.08.18.18.24.3.03.05.06.12.08.18.02.07.03.14.05.21h0s-.01.01-.01.01l-.47.07h-.01c-.01-.09-.03-.17-.06-.24-.01-.02-.02-.03-.02-.05-.03-.05-.06-.09-.09-.13-.04-.05-.09-.09-.15-.12-.06-.03-.12-.05-.2-.07v1.33c.12.02.21.05.29.07.08.03.14.05.17.06.08.03.14.07.2.11.06.04.11.08.16.13.04.04.08.09.12.14.03.06.06.12.09.18.02.06.04.13.05.2.02.07.02.14.02.21,0,.32-.1.59-.31.81ZM58.56,47.68c.16,0,.3.14.3.3s-.14.3-.3.3c-.17,0-.3-.14-.3-.3s.13-.3.3-.3ZM56.62,47.68c.17,0,.3.14.3.3s-.13.3-.3.3c-.16,0-.29-.14-.29-.3s.13-.3.29-.3ZM59.32,54.31h-3c-.12,0-.21-.09-.21-.21s.09-.21.21-.21h3c.12,0,.21.09.21.21s-.09.21-.21.21ZM60.53,52.9h-4.21c-.12,0-.21-.09-.21-.21s.09-.21.21-.21h4.21c.11,0,.21.09.21.21s-.1.21-.21.21ZM60.7,51.4s-.09.08-.16.08h-4.22c-.07,0-.13-.03-.16-.08-.03-.03-.05-.08-.05-.13,0-.12.09-.21.21-.21h4.22c.12,0,.21.09.21.21,0,.05-.02.1-.05.13ZM60.54,50.05h-4.22c-.12,0-.21-.09-.21-.21s.09-.21.21-.21h4.22c.12,0,.21.09.21.21s-.09.21-.21.21ZM60.49,48.28c-.16,0-.3-.14-.3-.3s.14-.3.3-.3c.17,0,.3.14.3.3s-.13.3-.3.3Z"/>
    <path class="cls-2" d="M54.73,52.72c0,.1-.01.19-.04.27-.03.08-.07.16-.13.22-.06.07-.13.12-.2.16s-.15.06-.24.07v-1.37c.12.03.22.07.31.11.08.04.14.09.18.14.04.05.07.1.09.17.02.07.03.15.03.23Z"/>
    <path class="cls-2" d="M53.84,50.25v1.26c-.1-.03-.19-.06-.26-.1-.01,0-.02-.01-.03-.02-.06-.03-.11-.07-.15-.12-.05-.05-.08-.11-.1-.18-.02-.06-.03-.13-.03-.21s0-.16.04-.22c.01-.03.02-.05.03-.08.02-.04.05-.08.08-.11.05-.06.11-.11.18-.14.07-.04.15-.06.24-.08Z"/>
    <polygon class="cls-2" points="53.93 56.68 52.94 57.68 48.21 62.42 48.21 52.02 51.07 54.34 51.65 54.83 53.6 56.41 53.93 56.68"/>
    <path class="cls-2" d="M64.54,63.12h-15.88l5.9-5.92,1.96,1.59c.07.06.16.09.25.09.1,0,.19-.03.27-.1l1.86-1.58,5.64,5.92Z"/>
  </g>
</svg>