<?xml version="1.0" encoding="UTF-8"?>
<svg id="Layer_1" data-name="Layer 1" xmlns="http://www.w3.org/2000/svg" viewBox="0 0 113.39 113.39">
  <defs>
    <style>
      .cls-1 {
        fill-rule: evenodd;
        stroke-width: 0px;
      }

      .cls-2 {
        fill: none;
        stroke: #000;
        stroke-miterlimit: 10;
        stroke-width: 3px;
      }
    </style>
  </defs>
  <path class="cls-1" d="M41.07,57.79l3.09-.08,2.56-.07c-2.99-9.2-1.99-17.66,5.21-24.85,1.22,3.95,3.96,7.2,8.61,9.61,2.23,1.66,4.38,3.65,6.46,5.95.37-1.52-1.04-3.37-2.75-5.28,1.58.78,3.04,1.87,4.07,3.98,1.19,2.44,1.18,4.5.78,7.15-.18,1.23-.48,2.38-.91,3.44h4.26c4.49-9.62,1.65-23.89-7.54-29.94-2.82-1.85-4.84-1.78-8.15-1.78-3.79,0-5.72.12-8.96,2.27-4.78,3.16-7.72,8.63-8.96,16.23-.25,3.78-.42,10.33,2.23,13.37h0ZM73.35,72.52c-1.74-3.49-3.95-6.46-6.53-9.25,4.85,1.87,9.79,3.73,13.46,6.03,2.33,1.46,3.54,2.56,4.48,4.34,2.32,4.36,1.98,9.2,3.22,13.84H25.39c1.24-4.64.9-9.48,3.22-13.84.94-1.77,2.15-2.87,4.48-4.34,3.67-2.3,8.61-4.15,13.46-6.03-2.57,2.79-4.78,5.75-6.53,9.25l5.05-.12,11.61,10.1,11.61-10.1,5.05.12h0ZM52.79,75.28l2.3-7.98-1.13-1.23c-.51-.74-.62-1.39-.34-1.95.61-1.21,1.87-.98,3.06-.98s2.77-.23,3.15,1.31c.13.52-.04,1.06-.4,1.62l-1.13,1.23,2.3,7.98-3.91,3.09-3.91-3.09h0Z"/>
  <rect class="cls-2" x="12.67" y="12.67" width="88.04" height="88.04" rx="6.13" ry="6.13"/>
</svg>